# xmcd
#
# Track frame offsets:
#	150
#	21066
#	37323
#	51093
#	64535
#	77041
#	92659
#	106377
#	126862
#	142264
#	161299
#	179005
#	195879
#	206317
#
# Disc length: 2972 seconds
#
# Revision: 0
# Processed by: cddbd v1.4PL0 Copyright (c) Steve Scherf et al.
# Submitted via: EasyCDDAExtractor 4.5.0.2
#
DISCID=bc0b9a0e
DTITLE=Cajun Beano - Beano
DYEAR=2000
DGENRE=Cajun/Texmex
TTITLE0=Viva Sequin
TTITLE1=Te Quiro Mas
TTITLE2=Mamou Two Step
TTITLE3=Diggy Liggy Lo
TTITLE4=La Esperanza-La Blanca Rosa
TTITLE5=Borderline
TTITLE6=Thank God I'm a Country Boy
TTITLE7=Wer Bin Al Myn Maten No
TTITLE8=Travailler
TTITLE9=Abe
TTITLE10=Midnight Special
TTITLE11=Volver Volver
TTITLE12=Tico Taco Polka
TTITLE13=De Dingen
EXTD=
EXTT0=
EXTT1=
EXTT2=
EXTT3=
EXTT4=
EXTT5=
EXTT6=
EXTT7=
EXTT8=
EXTT9=
EXTT10=
EXTT11=
EXTT12=
EXTT13=
PLAYORDER=
